<svg xmlns="http://www.w3.org/2000/svg" style="position:absolute;width:0;height:0" aria-hidden="true" overflow="hidden">
  <defs>
    <symbol id="phone" viewBox="0 0 32 32">
      <path d="M27.248 21.072l-3.952-.453a3.085 3.085 0 00-2.551.888l-2.861 2.861c-4.436-2.289-7.961-5.815-10.189-10.12l-.061-.131 2.88-2.877c.667-.667.992-1.6.885-2.552l-.453-3.92a3.116 3.116 0 00-3.091-2.752H5.16c-1.757 0-3.219 1.461-3.109 3.219.862 13.291 11.427 23.857 24.639 24.716l.078.004c1.76.107 3.219-1.355 3.219-3.112V24.15v-.014a3.084 3.084 0 00-2.722-3.062l-.014-.001z"/>
    </symbol>
    <symbol id="paperclip" viewBox="0 0 35 32">
      <path d="M6.301 32c-1.49 0-2.811-.56-3.968-1.677C1.111 29.139.501 27.704.501 26.016s.61-3.123 1.832-4.306L21.501 2.032A6.795 6.795 0 0124.838.169l.046-.009c.461-.104.99-.163 1.532-.163.842 0 1.65.143 2.402.406l-.051-.016c1.312.43 2.523 1.171 3.634 2.226.352.363.676.758.964 1.179l.02.031c.299.442.544.904.733 1.387.368.933.583 2.014.584 3.145v.001c-.045 2.28-.845 4.182-2.4 5.709L17.801 28.969a1.013 1.013 0 01-.731.339h-.001a1.006 1.006 0 01-.752-.275.997.997 0 01-.331-.724v-.001l-.001-.053c0-.274.108-.523.285-.706l14.499-14.904c1.178-1.162 1.778-2.602 1.8-4.322.022-1.722-.544-3.13-1.699-4.227a7.44 7.44 0 00-2.32-1.594l-.048-.019a5.233 5.233 0 00-2.043-.408c-.267 0-.529.02-.786.058l.029-.004c-1 .128-1.888.57-2.666 1.322L3.868 23.129c-.821.795-1.232 1.752-1.232 2.87s.411 2.075 1.232 2.87a3.9 3.9 0 001.235.822c.443.184.91.253 1.398.21.979-.042 1.89-.483 2.734-1.322l15.232-15.677c.233-.226.442-.474.623-.742l.01-.016c.205-.302.347-.662.399-1.051l.001-.013a1.032 1.032 0 00-.102-.571l.003.006a1.847 1.847 0 00-.399-.548l-.001-.001c-.422-.43-.832-.624-1.232-.581-.424.043-.901.312-1.435.806L10.868 21.997a1.123 1.123 0 01-.459.271l-.008.002a1.057 1.057 0 01-1.034-.241l.001.001a.907.907 0 01-.333-.702v-.009c0-.28.099-.528.299-.742l11.467-11.84c.912-.859 1.834-1.333 2.768-1.418 1.066-.086 2.043.301 2.931 1.16.845.797 1.216 1.731 1.117 2.806-.099 1.077-.638 2.086-1.616 3.034L10.769 30.028c-1.246 1.205-2.635 1.85-4.168 1.936a.801.801 0 00-.156.017l.005-.001a.839.839 0 01-.148.016h-.001z"/>
    </symbol>
    <symbol id="spinner" viewBox="0 0 31 32">
      <path fill="none" stroke="var(--color3, #487996)" stroke-linecap="round" stroke-linejoin="round" d="M15.5.585v4.286m10.714-.001L23 8.086M4.786 4.87L8 8.086m7.5 22.499v-4.286m10.714.001L23 23.084M4.786 26.3L8 23.084M.5 15.585h4.286m21.428 0H30.5"/>
    </symbol>
    <symbol id="menu--expand" viewBox="0 0 107 32">
      <path d="M53.333 32L7.146 0h92.373L53.332 32z"/>
    </symbol>
    <symbol id="menu-collapse" viewBox="0 0 107 32">
      <path d="M53.333 0L99.52 32H7.147L53.334 0z"/>
    </symbol>
    <symbol id="form-expand" viewBox="0 0 48 32">
      <path d="M26.445 29.101a3.198 3.198 0 01-4.886.004l-.004-.005L2.112 6.06A3.2 3.2 0 014.56.799h38.88a3.2 3.2 0 012.441 5.269l.004-.005-19.44 23.04z"/>
    </symbol>
    <symbol id="form-collapse" viewBox="0 0 48 32">
      <path d="M21.555 2.899a3.198 3.198 0 014.886-.004l.004.005 19.44 23.04a3.2 3.2 0 01-2.445 5.261H4.56a3.2 3.2 0 01-2.441-5.269l-.004.005 19.44-23.04z"/>
    </symbol>
    <symbol id="cross" viewBox="0 0 32 32">
      <path d="M18.41 16L30.872 3.538a1.71 1.71 0 00-2.412-2.409l.002-.002L16 13.589 3.538 1.109a1.71 1.71 0 00-2.409 2.415l-.002-.002L13.589 16 1.109 28.462a1.71 1.71 0 102.41 2.412l.002-.002L15.999 18.41l12.462 12.462a1.71 1.71 0 002.408-2.413l.002.003L18.409 16z"/>
    </symbol>
    <symbol id="burger" viewBox="0 0 57 32">
      <path d="M56.889 1.778c0 .982-.796 1.778-1.778 1.778H1.778a1.778 1.778 0 110-3.556h53.333c.982 0 1.778.796 1.778 1.778zm0 28.444c0 .982-.796 1.778-1.778 1.778H1.778a1.778 1.778 0 110-3.556h53.333c.982 0 1.778.796 1.778 1.778zm0-14.236c0 .974-.79 1.764-1.764 1.764H1.763a1.764 1.764 0 010-3.528h53.362c.974 0 1.764.789 1.764 1.764z"/>
    </symbol>
    <symbol id="play" viewBox="0 0 26 32">
      <path d="M25.931 15.044a1.105 1.105 0 01.006 1.909l-.005.003-24 13.856a1.103 1.103 0 01-1.655-.955V2.145a1.103 1.103 0 011.66-.952l-.005-.003 24 13.856z"/>
    </symbol>
    <symbol id="arrow-right" viewBox="0 0 18 32">
      <path d="M0 29.856L14.087 16 0 2.144 2.176 0 18.4 16.008 2.176 32 0 29.856z"/>
    </symbol>
    <symbol id="arrow-left" viewBox="0 0 18 32">
      <path d="M18.4 2.144L4.313 16 18.4 29.856 16.224 32 0 15.992 16.224 0 18.4 2.144z"/>
    </symbol>
    <symbol id="arrow-down" viewBox="0 0 22 32">
      <path d="M11.034 0c-.609 0-1.103.494-1.103 1.103v26.026l-6.943-6.945a1.105 1.105 0 00-1.562 1.562l8.828 8.828a1.101 1.101 0 001.562 0l8.828-8.828a1.107 1.107 0 00-.781-1.887c-.292 0-.574.117-.781.324l-6.943 6.945V1.102c0-.609-.494-1.103-1.103-1.103z"/>
    </symbol>
    <symbol id="wink" viewBox="0 0 32 32">
      <path fill="#ffe17d" d="M32 16c0 8.837-7.163 16-16 16S0 24.837 0 16 7.163 0 16 0s16 7.163 16 16z"/>
      <path fill="#ffd164" d="M18.323 29.677c-8.837 0-16-7.163-16-16 0-3.827 1.345-7.338 3.586-10.091C2.304 6.52 0 10.99 0 16c0 8.837 7.163 16 16 16 5.01 0 9.48-2.304 12.414-5.909a15.93 15.93 0 01-10.092 3.586z"/>
      <path fill="#aa7346" d="M15.998 24.387c-1.592 0-3.054-.426-4.01-1.168a.645.645 0 11.791-1.019c.723.561 1.926.897 3.219.897s2.495-.335 3.219-.897a.645.645 0 01.791 1.019c-.957.742-2.418 1.168-4.011 1.168zm7.228-7.742h-.001a.64.64 0 01-.501-.24l-.001-.001c-.41-.51-.965-.791-1.561-.791s-1.152.281-1.561.791a.646.646 0 01-1.006-.808c.651-.809 1.586-1.273 2.568-1.273s1.917.464 2.568 1.273a.645.645 0 01-.502 1.049zm1.032-2.58a.644.644 0 01-.288-.068c-.019-.009-1.983-.964-4.873-.964a.645.645 0 010-1.29c3.212 0 5.36 1.055 5.45 1.1a.647.647 0 01.287.869l.002-.004a.647.647 0 01-.577.357h-.001zM7.226 13.032h-.001a.642.642 0 01-.486-.222l-.001-.001a.644.644 0 01.064-.909c.091-.079 2.258-1.939 5.43-2.72a.646.646 0 01.309 1.253c-2.858.704-4.873 2.424-4.893 2.442a.638.638 0 01-.421.157h-.001z"/>
      <path fill="#7d5046" d="M10.581 17.548a1.29 1.29 0 01-1.29-1.29v-1.032a1.29 1.29 0 112.58 0v1.032a1.29 1.29 0 01-1.29 1.29z"/>
      <path fill="#9c6846" d="M10.581 13.935a1.29 1.29 0 00-.258.026v1.78a.774.774 0 101.548 0v-.516a1.29 1.29 0 00-1.29-1.29z"/>
    </symbol>
  </defs>
</svg>